<svg width="182" height="50" viewBox="0 0 182 50" fill="none" xmlns="http://www.w3.org/2000/svg">
<g filter="url(#filter0_d_406_68)">
<rect y="4" width="69" height="46" rx="6" fill="#2A2877"/>
</g>
<path d="M11.41 17.03V30.23C11.41 32.31 11.9 33.85 12.88 34.85C13.88 35.85 15.24 36.35 16.96 36.35C18.68 36.35 20.02 35.86 20.98 34.88C21.96 33.88 22.45 32.33 22.45 30.23V17.03H24.55V30.2C24.55 32.86 23.84 34.86 22.42 36.2C21.02 37.54 19.19 38.21 16.93 38.21C14.67 38.21 12.83 37.54 11.41 36.2C10.01 34.86 9.31 32.86 9.31 30.2V17.03H11.41ZM42.014 21.32C43.974 21.32 45.574 21.93 46.814 23.15C48.054 24.35 48.674 26.1 48.674 28.4V38H46.604V28.64C46.604 26.86 46.154 25.5 45.254 24.56C44.374 23.62 43.164 23.15 41.624 23.15C40.044 23.15 38.784 23.65 37.844 24.65C36.904 25.65 36.434 27.12 36.434 29.06V38H34.334V21.62H36.434V24.41C36.954 23.41 37.704 22.65 38.684 22.13C39.664 21.59 40.774 21.32 42.014 21.32ZM59.4684 18.53C59.0484 18.53 58.6884 18.38 58.3884 18.08C58.0884 17.78 57.9384 17.41 57.9384 16.97C57.9384 16.53 58.0884 16.17 58.3884 15.89C58.6884 15.59 59.0484 15.44 59.4684 15.44C59.8884 15.44 60.2484 15.59 60.5484 15.89C60.8484 16.17 60.9984 16.53 60.9984 16.97C60.9984 17.41 60.8484 17.78 60.5484 18.08C60.2484 18.38 59.8884 18.53 59.4684 18.53ZM60.5184 21.62V38H58.4184V21.62H60.5184Z" fill="white"/>
<path d="M77.62 28.84C77.62 27.14 77.95 25.66 78.61 24.4C79.29 23.14 80.22 22.18 81.4 21.52C82.6 20.84 83.97 20.5 85.51 20.5C87.55 20.5 89.22 21.01 90.52 22.03C91.84 23.05 92.66 24.42 92.98 26.14H91.57C91.31 24.74 90.63 23.64 89.53 22.84C88.45 22.04 87.11 21.64 85.51 21.64C84.31 21.64 83.22 21.91 82.24 22.45C81.26 22.97 80.47 23.78 79.87 24.88C79.29 25.96 79 27.28 79 28.84C79 30.42 79.29 31.75 79.87 32.83C80.47 33.91 81.26 34.72 82.24 35.26C83.22 35.8 84.31 36.07 85.51 36.07C87.11 36.07 88.45 35.67 89.53 34.87C90.63 34.07 91.31 32.97 91.57 31.57H92.98C92.66 33.27 91.84 34.64 90.52 35.68C89.2 36.72 87.53 37.24 85.51 37.24C83.97 37.24 82.6 36.9 81.4 36.22C80.22 35.54 79.29 34.57 78.61 33.31C77.95 32.03 77.62 30.54 77.62 28.84ZM116.863 27.76C116.863 28.48 116.843 29.02 116.803 29.38H102.733C102.773 30.84 103.093 32.07 103.693 33.07C104.293 34.07 105.083 34.82 106.063 35.32C107.043 35.82 108.113 36.07 109.273 36.07C110.873 36.07 112.213 35.68 113.293 34.9C114.373 34.1 115.053 33.02 115.333 31.66H116.743C116.423 33.32 115.603 34.67 114.283 35.71C112.963 36.73 111.293 37.24 109.273 37.24C107.753 37.24 106.393 36.9 105.193 36.22C103.993 35.54 103.053 34.57 102.373 33.31C101.693 32.03 101.353 30.54 101.353 28.84C101.353 27.14 101.683 25.66 102.343 24.4C103.023 23.14 103.963 22.18 105.163 21.52C106.363 20.84 107.733 20.5 109.273 20.5C110.833 20.5 112.183 20.84 113.323 21.52C114.483 22.18 115.363 23.07 115.963 24.19C116.563 25.29 116.863 26.48 116.863 27.76ZM115.513 28.27C115.573 26.83 115.313 25.61 114.733 24.61C114.173 23.61 113.403 22.87 112.423 22.39C111.443 21.89 110.383 21.64 109.243 21.64C108.103 21.64 107.043 21.89 106.063 22.39C105.103 22.87 104.313 23.61 103.693 24.61C103.093 25.61 102.773 26.83 102.733 28.27H115.513ZM131.563 35.53L137.563 20.71H139.003L132.253 37H130.843L124.093 20.71H125.563L131.563 35.53ZM161.75 27.76C161.75 28.48 161.73 29.02 161.69 29.38H147.62C147.66 30.84 147.98 32.07 148.58 33.07C149.18 34.07 149.97 34.82 150.95 35.32C151.93 35.82 153 36.07 154.16 36.07C155.76 36.07 157.1 35.68 158.18 34.9C159.26 34.1 159.94 33.02 160.22 31.66H161.63C161.31 33.32 160.49 34.67 159.17 35.71C157.85 36.73 156.18 37.24 154.16 37.24C152.64 37.24 151.28 36.9 150.08 36.22C148.88 35.54 147.94 34.57 147.26 33.31C146.58 32.03 146.24 30.54 146.24 28.84C146.24 27.14 146.57 25.66 147.23 24.4C147.91 23.14 148.85 22.18 150.05 21.52C151.25 20.84 152.62 20.5 154.16 20.5C155.72 20.5 157.07 20.84 158.21 21.52C159.37 22.18 160.25 23.07 160.85 24.19C161.45 25.29 161.75 26.48 161.75 27.76ZM160.4 28.27C160.46 26.83 160.2 25.61 159.62 24.61C159.06 23.61 158.29 22.87 157.31 22.39C156.33 21.89 155.27 21.64 154.13 21.64C152.99 21.64 151.93 21.89 150.95 22.39C149.99 22.87 149.2 23.61 148.58 24.61C147.98 25.61 147.66 26.83 147.62 28.27H160.4ZM172.28 24.07C172.68 22.87 173.39 21.96 174.41 21.34C175.43 20.7 176.73 20.38 178.31 20.38V21.79H177.86C176.26 21.79 174.93 22.25 173.87 23.17C172.81 24.07 172.28 25.55 172.28 27.61V37H170.93V20.71H172.28V24.07Z" fill="#2A2877"/>
<defs>
<filter id="filter0_d_406_68" x="0" y="0" width="73" height="50" filterUnits="userSpaceOnUse" color-interpolation-filters="sRGB">
<feFlood flood-opacity="0" result="BackgroundImageFix"/>
<feColorMatrix in="SourceAlpha" type="matrix" values="0 0 0 0 0 0 0 0 0 0 0 0 0 0 0 0 0 0 127 0" result="hardAlpha"/>
<feOffset dx="4" dy="-4"/>
<feComposite in2="hardAlpha" operator="out"/>
<feColorMatrix type="matrix" values="0 0 0 0 1 0 0 0 0 1 0 0 0 0 1 0 0 0 1 0"/>
<feBlend mode="normal" in2="BackgroundImageFix" result="effect1_dropShadow_406_68"/>
<feBlend mode="normal" in="SourceGraphic" in2="effect1_dropShadow_406_68" result="shape"/>
</filter>
</defs>
</svg>
